<?xml version="1.0" encoding="UTF-8"?>
<svg version="1.1" xmlns="http://www.w3.org/2000/svg" width="1600" height="1600">
<path d="M0 0 C528 0 1056 0 1600 0 C1600 528 1600 1056 1600 1600 C1072 1600 544 1600 0 1600 C0 1072 0 544 0 0 Z " fill="#050505" transform="translate(0,0)"/>
<path d="M0 0 C6.59414523 3.13285061 10.77963538 8.10504831 14.5390625 14.28125 C15.71539158 17.81023723 15.69547156 21.00199849 15.70401001 24.67454529 C15.71247851 25.82049575 15.71247851 25.82049575 15.72111809 26.98959672 C15.73892626 29.57435699 15.74958635 32.15909756 15.76025391 34.74389648 C15.77146061 36.61153994 15.78305939 38.47918108 15.79501724 40.34681988 C15.82663087 45.51560588 15.85161552 50.68440551 15.87516546 55.85323381 C15.89074966 59.17894687 15.9079993 62.50464716 15.92581558 65.83034897 C16.01145573 81.82408378 16.0826012 97.81785849 16.1479702 113.81168795 C16.16399302 117.70188203 16.18048138 121.59207388 16.19709778 125.48226547 C16.53641464 205.31495421 16.60954876 285.14702155 16.33506297 397.32956266 C16.30282065 408.8604449 16.27655257 420.3913247 16.25492407 431.92223155 C16.22685254 446.87187337 16.18846724 461.82143055 16.13203442 476.77099419 C16.10479671 484.03886016 16.08192262 491.30666913 16.07184219 498.57458115 C16.06251285 505.26194853 16.03810171 511.94908644 16.00304103 518.6363765 C15.99268798 521.06600636 15.9873756 523.49566382 15.98752332 525.92531574 C15.98693142 529.22662911 15.96805012 532.52734946 15.94451904 535.8285675 C15.9486843 536.77972769 15.95284956 537.73088788 15.95714104 538.7108711 C15.86450433 546.86773965 14.0149486 553.66030554 8.3125 559.73828125 C2.02452073 565.20910021 -4.92720967 566.03844293 -13.078125 565.80078125 C-19.53153187 564.80966911 -23.45679169 561.39087717 -27.8359375 556.78125 C-32.30329567 549.90839128 -32.88739234 544.98844394 -32.82170105 536.92984009 C-32.82426432 535.78131888 -32.8268276 534.63279767 -32.82946855 533.44947278 C-32.83354982 530.27045085 -32.8241964 527.09179752 -32.80913436 523.91281915 C-32.79616225 520.48139999 -32.80056429 517.04999758 -32.80284119 513.61856079 C-32.80441318 507.67633634 -32.79501174 501.73421083 -32.77812767 495.79201126 C-32.75373219 487.20063646 -32.74593184 478.60930942 -32.7421637 470.01790373 C-32.73560007 456.07847772 -32.71564133 442.13910442 -32.68725586 428.19970703 C-32.65971299 414.65999617 -32.63848052 401.12029963 -32.62573242 387.58056641 C-32.62494425 386.74578399 -32.62415608 385.91100156 -32.62334403 385.05092271 C-32.61942887 380.86300665 -32.61563776 376.6750905 -32.61190832 372.48717427 C-32.58081518 337.75182861 -32.52798181 303.01654417 -32.4609375 268.28125 C-36.3899913 269.37260813 -40.3181129 270.467287 -44.24609375 271.5625 C-45.34264282 271.86704102 -46.43919189 272.17158203 -47.56896973 272.48535156 C-54.71301764 274.47940739 -61.81572766 276.57976355 -68.8984375 278.78125 C-78.12302693 281.62677226 -87.40254592 284.18310988 -96.73632812 286.64526367 C-105.10781428 288.87042877 -113.39038013 291.32708869 -121.63867188 293.97265625 C-127.84960349 295.92769337 -134.03228225 297.25312793 -140.4609375 298.28125 C-139.45182292 296.29557292 -138.44270833 294.30989583 -137.43359375 292.32421875 C-134.56428421 286.29751638 -134.52201003 279.45740938 -136.4609375 273.09375 C-138.90782502 267.34939025 -143.94886724 263.48495033 -149.4609375 260.84375 C-150.1209375 260.658125 -150.7809375 260.4725 -151.4609375 260.28125 C-150.4609375 258.28125 -150.4609375 258.28125 -148.37329102 257.53857422 C-146.99548462 257.19076904 -146.99548462 257.19076904 -145.58984375 256.8359375 C-144.53732422 256.56265625 -143.48480469 256.289375 -142.40039062 256.0078125 C-141.28599609 255.72679687 -140.17160156 255.44578125 -139.0234375 255.15625 C-130.12907769 252.90308729 -121.36885573 250.35822175 -112.609375 247.6328125 C-98.38031077 243.21064203 -84.07604907 239.07365595 -69.74780273 234.98730469 C-66.16479515 233.96528283 -62.58358834 232.93708887 -59.00275517 231.90747833 C-56.20950576 231.10521512 -53.41522927 230.3065793 -50.62063408 229.50901794 C-49.29698747 229.1306871 -47.97369442 228.75111688 -46.650774 228.37025452 C-44.82563698 227.8452761 -42.99891415 227.32582027 -41.17211914 226.80664062 C-40.13801407 226.5110022 -39.103909 226.21536377 -38.03846741 225.9107666 C-35.4609375 225.28125 -35.4609375 225.28125 -32.4609375 225.28125 C-32.46646826 224.21333788 -32.47199902 223.14542576 -32.47769737 222.04515266 C-32.61096419 196.04641792 -32.70952489 170.04772753 -32.77181053 144.04872322 C-32.80273295 131.47571794 -32.84488308 118.90293846 -32.91357422 106.33007812 C-32.97342509 95.37005805 -33.01209837 84.41020153 -33.02546847 73.45002258 C-33.03328248 67.64797522 -33.05161433 61.84639569 -33.09531784 56.04449844 C-33.13614824 50.57956814 -33.14858525 45.11529685 -33.13958359 39.6502285 C-33.14122954 37.64837115 -33.15310196 35.64649097 -33.17617035 33.64476585 C-33.39198477 13.94578007 -33.39198477 13.94578007 -26.4609375 6.28125 C-23.9765625 4.02734375 -23.9765625 4.02734375 -21.7109375 2.71875 C-20.57398438 2.03619141 -20.57398438 2.03619141 -19.4140625 1.33984375 C-13.58516363 -1.81941944 -6.37078456 -1.86067359 0 0 Z " fill="#EFEAE1" transform="translate(957.4609375,517.71875)"/>
<path d="M0 0 C4.34668212 3.44291653 7.7809942 7.44760718 9.97265625 12.5625 C10.22105324 14.86107421 10.22105324 14.86107421 10.21875191 17.44317245 C10.222734 18.42997081 10.2267161 19.41676916 10.23081887 20.43347049 C10.22208034 22.05602815 10.22208034 22.05602815 10.21316528 23.71136475 C10.21487413 24.86226066 10.21658298 26.01315657 10.21834362 27.19892812 C10.22107064 30.39379327 10.21481117 33.58849659 10.20478749 36.7833426 C10.19615777 40.22843056 10.19907281 43.67351084 10.20059204 47.11860657 C10.2016412 53.08758079 10.19536142 59.05651132 10.18411636 65.02547455 C10.16786845 73.65560731 10.16265408 82.28571893 10.16014038 90.91586533 C10.15576216 104.91739225 10.14244962 118.91889588 10.12353516 132.92041016 C10.10517964 146.52229699 10.09102153 160.1241775 10.08251953 173.72607422 C10.08173136 174.98351651 10.08173136 174.98351651 10.08092727 176.26636168 C10.07831721 180.47180313 10.07578979 184.67724462 10.07330346 188.88268614 C10.05256702 223.77597403 10.01733804 258.66923487 9.97265625 293.5625 C31.65966162 287.27280534 31.65966162 287.27280534 53.33743763 280.95140266 C59.51130695 279.14591478 65.68784045 277.34968036 71.86553478 275.55732536 C75.97352161 274.36509906 80.08027387 273.16888607 84.18481445 271.96484375 C88.25104191 270.77221999 92.31995585 269.58922656 96.39095497 268.4129982 C97.92097758 267.96910544 99.45000177 267.52175538 100.97795677 267.07079697 C103.08586101 266.44925469 105.19697867 265.84012666 107.30932617 265.23388672 C108.50377853 264.88574921 109.6982309 264.53761169 110.92887878 264.17892456 C113.81201853 263.59503229 115.26721092 263.52979096 117.97265625 264.5625 C117.33328125 265.47 116.69390625 266.3775 116.03515625 267.3125 C112.54717547 272.80871214 112.31455512 278.16011614 112.97265625 284.5625 C114.75640185 291.27840965 118.19694158 295.75929503 123.97265625 299.5625 C126.71813499 300.93300596 126.71813499 300.93300596 128.97265625 301.5625 C121.13967871 306.78448503 110.75000162 308.51765537 101.72265625 310.875 C92.33086202 313.36667319 82.98467006 315.97295301 73.66503906 318.72143555 C67.53482141 320.52728635 61.39707962 322.30336372 55.25 324.05078125 C54.10380943 324.37684105 54.10380943 324.37684105 52.9344635 324.70948792 C49.87830991 325.57853035 46.82208161 326.4472809 43.76467896 327.31192017 C41.62514431 327.91704749 39.48619244 328.52416632 37.34765625 329.1328125 C36.65820419 329.32898666 35.96875214 329.52516083 35.25840759 329.72727966 C29.48982572 331.38342186 23.76500137 333.16929136 18.06005859 335.03274536 C15.23242609 335.940461 12.96513744 336.5625 9.97265625 336.5625 C9.97726521 337.63740944 9.98187418 338.71231888 9.98662281 339.81980133 C10.09762756 365.97641665 10.1797883 392.13300142 10.23171711 418.28980255 C10.25749708 430.9390551 10.29264396 443.58815202 10.34985352 456.23730469 C10.39969444 467.26249467 10.43194876 478.28757195 10.44309872 489.31287146 C10.44961622 495.15056148 10.46493048 500.98792908 10.50130653 506.82551575 C10.53527652 512.32157559 10.54570699 517.81718057 10.53819466 523.31333542 C10.53956873 525.32892199 10.54949501 527.34452398 10.56868362 529.36001968 C10.59363747 532.11658573 10.58755311 534.87144451 10.57392883 537.62805176 C10.58849304 538.42184817 10.60305725 539.21564458 10.61806279 540.03349543 C10.52633856 546.92016804 7.72273247 551.60087946 3.09375 556.5859375 C2.26037109 557.25496094 2.26037109 557.25496094 1.41015625 557.9375 C0.85199219 558.39898438 0.29382813 558.86046875 -0.28125 559.3359375 C-6.63853771 563.80168323 -13.55404053 563.39878012 -21.02734375 562.5625 C-28.44543985 560.10592059 -32.31960815 555.56175178 -35.96875 548.83203125 C-37.97342318 544.53418949 -38.18141647 540.85902596 -38.19229126 536.20716858 C-38.19793728 535.44728569 -38.2035833 534.6874028 -38.20940042 533.90449315 C-38.22720927 531.33355191 -38.2378697 528.76263051 -38.24853516 526.19165039 C-38.25973672 524.33385043 -38.27132977 522.4760528 -38.28328133 520.61825752 C-38.31488296 515.4763262 -38.3398582 510.33438109 -38.36342144 505.19240737 C-38.37903191 501.88352062 -38.39633785 498.57464706 -38.41422272 495.26577187 C-38.50023018 479.3486306 -38.57177992 463.43144996 -38.63650036 447.51420879 C-38.65227586 443.64166611 -38.66836287 439.76912481 -38.68448639 435.89658356 C-39.01674405 355.43863442 -39.1375986 274.97981898 -38.96121025 177.07421207 C-38.95860091 175.84577428 -38.95860091 175.84577428 -38.95593885 174.59251956 C-38.95419876 173.7743556 -38.95245866 172.95619163 -38.95066583 172.11323482 C-38.94892765 171.29589391 -38.94718947 170.478553 -38.94539861 169.63644419 C-38.94188525 167.98845956 -38.93835145 166.34047497 -38.93479712 164.69249042 C-38.90843025 152.35155964 -38.89545029 140.01066441 -38.88946533 127.66970825 C-38.88250222 113.54719345 -38.85743052 99.42484013 -38.80849266 85.30240566 C-38.78373833 78.0385753 -38.76667468 70.77493356 -38.77158356 63.5110569 C-38.776085 56.82444109 -38.75557939 50.13838225 -38.71753764 43.45185077 C-38.70774832 41.02469069 -38.70638067 38.59747923 -38.71421552 36.17031205 C-38.72359011 32.86711652 -38.70225651 29.56547107 -38.67330933 26.26242065 C-38.68330027 25.31640387 -38.69329121 24.37038709 -38.70358491 23.39570314 C-38.57966505 15.53515818 -36.04011079 9.18478638 -31 3.125 C-21.85078462 -4.35902076 -10.46665554 -6.68650227 0 0 Z " fill="#EEE9E1" transform="translate(665.02734375,520.4375)"/>
<path d="M0 0 C-0.33 4.29 -0.66 8.58 -1 13 C-2.00224609 13.0093457 -3.00449219 13.01869141 -4.03710938 13.02832031 C-104.23954538 14.11274442 -198.93546032 39.51059634 -318 124 C-318.55333008 124.46164551 -319.10666016 124.92329102 -319.67675781 125.39892578 C-326.67357719 131.2540775 -333.38804451 137.22113979 -339.76171875 143.76171875 C-341.82961756 145.82961756 -343.95711676 147.73578436 -346.1875 149.625 C-349.5655722 152.51467622 -352.42308373 155.65482007 -355.29296875 159.04296875 C-356.91260807 160.89980925 -358.60123291 162.60397492 -360.375 164.3125 C-364.07810853 167.95800462 -367.29251142 171.9346528 -370.546875 175.98046875 C-372.69235274 178.62131954 -374.87823071 181.21461141 -377.09375 183.79614258 C-432.14106539 248.04668102 -468.07147686 332.27695803 -479 416 C-479.08979126 416.67939636 -479.17958252 417.35879272 -479.27209473 418.05877686 C-484.38699373 457.08107458 -485.4084094 496.9453815 -480 536 C-479.90054077 536.72064636 -479.80108154 537.44129272 -479.6986084 538.18377686 C-467.24014147 627.41664604 -431.96184662 710.67308542 -374 780 C-373.56494141 780.52142578 -373.12988281 781.04285156 -372.68164062 781.58007812 C-360.16522355 796.53269485 -346.98020962 811.41874889 -332.15625 824.125 C-329.6000761 826.34775991 -327.11621559 828.64222272 -324.625 830.9375 C-319.58022796 835.52741555 -314.39277794 839.8272749 -309 844 C-308.37818848 844.4837207 -307.75637695 844.96744141 -307.11572266 845.46582031 C-297.93378781 852.60032916 -288.6851826 859.55784455 -279 866 C-278.3719043 866.41958984 -277.74380859 866.83917969 -277.09667969 867.27148438 C-230.31509289 898.39862081 -179.35855728 920.25547294 -125 934 C-123.40188477 934.40919678 -123.40188477 934.40919678 -121.77148438 934.82666016 C-103.47232572 939.42626224 -84.70312293 941.71705974 -66 944 C-64.9162207 944.13567383 -63.83244141 944.27134766 -62.71582031 944.41113281 C22.65226332 954.6322693 111.07162886 935.84691077 188 899 C188.86818359 898.58782227 189.73636719 898.17564453 190.63085938 897.75097656 C228.92787671 879.48556591 264.17622747 854.82311749 295.48828125 826.265625 C296.88553423 825.00527239 298.28945145 823.75184588 299.71801758 822.52709961 C305.42589664 817.62409523 310.7553323 812.39366394 316.0625 807.0625 C316.92166016 806.20720703 317.78082031 805.35191406 318.66601562 804.47070312 C323.65353237 799.47556603 328.4175821 794.3672796 333 789 C333.96090732 787.90507937 334.92309353 786.81127941 335.88671875 785.71875 C342.8481077 777.74867751 349.30176869 769.49207194 355.55615234 760.95849609 C356.92462893 759.10223651 358.31188209 757.26204 359.70703125 755.42578125 C386.52584241 719.90472996 406.51110238 679.67651349 421.67626953 637.98510742 C422.07958496 636.87756104 422.48290039 635.77001465 422.8984375 634.62890625 C423.25599121 633.63963135 423.61354492 632.65035645 423.98193359 631.63110352 C424.87055137 629.33454865 425.8529378 627.1764522 427 625 C428.6256807 625.30893932 430.25052748 625.6222695 431.875 625.9375 C432.77992188 626.11152344 433.68484375 626.28554688 434.6171875 626.46484375 C437 627 437 627 439 628 C438.42029117 634.78259327 436.12769202 640.78052131 433.75 647.125 C433.30889893 648.30497559 432.86779785 649.48495117 432.41333008 650.70068359 C413.18578421 701.25250955 385.68770252 747.57102196 351 789 C350.46568359 789.63873047 349.93136719 790.27746094 349.38085938 790.93554688 C344.31154069 796.97336901 339.24462317 802.96416733 333.5625 808.44140625 C331.84027899 810.15932171 330.26865727 811.96415643 328.6875 813.8125 C322.69008699 820.75121101 316.14341604 827.1517727 309.171875 833.10546875 C307.03018735 834.97366751 304.95361651 836.90222565 302.87988281 838.84521484 C296.51470484 844.78701141 289.84509248 850.19657575 282.94091797 855.49609375 C280.89386056 857.08224138 278.86964419 858.69453598 276.84765625 860.3125 C238.12995319 891.14857104 193.34818714 914.91263732 147 932 C146.16629883 932.31130859 145.33259766 932.62261719 144.47363281 932.94335938 C112.21769765 944.92596024 78.08236241 952.48217841 44 957 C42.92911133 957.14953125 41.85822266 957.2990625 40.75488281 957.453125 C2.00349752 962.66037747 -39.2879086 962.4284989 -78 957 C-79.6072998 956.7831958 -79.6072998 956.7831958 -81.24707031 956.56201172 C-146.71292282 947.53671938 -209.5963801 925.40846902 -266 891 C-267.44656284 890.13012228 -268.89317308 889.26032338 -270.33984375 888.390625 C-286.3074678 878.69103236 -301.4977896 867.76594428 -316 856 C-316.97324219 855.22011719 -317.94648438 854.44023438 -318.94921875 853.63671875 C-324.25094568 849.35540788 -329.3884216 844.93387727 -334.41796875 840.3359375 C-335.78766248 839.09678946 -337.16258791 837.86252073 -338.57299805 836.66992188 C-345.2148403 831.02031418 -351.33811504 824.84796828 -357.49926758 818.68603516 C-359.42444702 816.76303818 -361.35749031 814.84819426 -363.29101562 812.93359375 C-369.55654045 806.69639053 -375.51747719 800.43119173 -381.00512695 793.49121094 C-382.96215352 791.04726294 -385.0059602 788.72465818 -387.109375 786.40625 C-391.0975944 781.96437558 -394.6993709 777.29548822 -398.25 772.5 C-399.22042236 771.19470337 -399.22042236 771.19470337 -400.21044922 769.86303711 C-402.14793799 767.24754642 -404.07609136 764.62549196 -406 762 C-406.54237305 761.26152832 -407.08474609 760.52305664 -407.64355469 759.76220703 C-456.28397735 693.20244239 -486.07890935 612.52858567 -494.70751953 530.71972656 C-494.98606057 528.12962043 -495.30134282 525.5462223 -495.62109375 522.9609375 C-506.47760001 427.87603681 -482.26292042 328.12295446 -392 180 C-386.31898109 172.96993097 -380.35591991 166.18946336 -374.265625 159.51171875 C-373.02189097 158.13288947 -371.78474783 156.74759583 -370.57983398 155.3347168 C-365.67881216 149.60890855 -360.42151943 144.26878623 -355.0847168 138.9543457 C-353.56508332 137.4400742 -352.05087483 135.9205257 -350.53710938 134.40039062 C-345.19676796 129.05612208 -339.75766548 123.8964523 -334 119 C-332.95141412 118.07485221 -331.90446348 117.14784679 -330.859375 116.21875 C-321.00736958 107.56351062 -310.57326853 99.74736661 -300 92 C-299.01700928 91.27635254 -299.01700928 91.27635254 -298.01416016 90.53808594 C-275.66025441 74.12146453 -251.72828009 60.4947082 -227 48 C-225.80238037 47.39309326 -225.80238037 47.39309326 -224.58056641 46.77392578 C-210.1341539 39.51823134 -195.11103952 33.71136953 -180 28 C-179.15099121 27.67870117 -178.30198242 27.35740234 -177.42724609 27.02636719 C-120.55884285 5.71454285 -60.29835952 -0.68039118 0 0 Z " fill="#C1A56C" transform="translate(817,320)"/>
<path d="M0 0 C3.58557097 2.35746663 7.0575852 5.1151704 9 9 C9.79536159 15.70376197 9.79536159 15.70376197 7.765625 19.01171875 C4.38188923 23.00687212 1.68708524 25.74264801 -3.6875 26.5625 C-8.53200125 26.48175831 -11.04844187 23.9461003 -14.43359375 20.7265625 C-17.09421994 17.79390222 -17.5066543 15.19495154 -17.4921875 11.23828125 C-16.5364076 6.89175836 -13.21213614 3.91417781 -10 1 C-6.69702861 -0.6514857 -3.54019631 -0.77847249 0 0 Z " fill="#BDA26A" transform="translate(804,787)"/>
</svg>
